<?xml version="1.0" encoding="utf-8" standalone="no"?>
<!DOCTYPE svg PUBLIC "-//W3C//DTD SVG 1.1//EN"
  "http://www.w3.org/Graphics/SVG/1.1/DTD/svg11.dtd">
<svg xmlns:xlink="http://www.w3.org/1999/xlink" width="720pt" height="432pt" viewBox="0 0 720 432" xmlns="http://www.w3.org/2000/svg" version="1.1">
 <metadata>
  <rdf:RDF xmlns:dc="http://purl.org/dc/elements/1.1/" xmlns:cc="http://creativecommons.org/ns#" xmlns:rdf="http://www.w3.org/1999/02/22-rdf-syntax-ns#">
   <cc:Work>
    <dc:type rdf:resource="http://purl.org/dc/dcmitype/StillImage"/>
    <dc:date>2025-11-17T14:06:35.536042</dc:date>
    <dc:format>image/svg+xml</dc:format>
    <dc:creator>
     <cc:Agent>
      <dc:title>Matplotlib v3.10.7, https://matplotlib.org/</dc:title>
     </cc:Agent>
    </dc:creator>
   </cc:Work>
  </rdf:RDF>
 </metadata>
 <defs>
  <style type="text/css">*{stroke-linejoin: round; stroke-linecap: butt}</style>
 </defs>
 <g id="figure_1">
  <g id="patch_1">
   <path d="M 0 432 
L 720 432 
L 720 0 
L 0 0 
z
" style="fill: #1a1a1a"/>
  </g>
  <g id="axes_1">
   <g id="patch_2">
    <path d="M 48.17 386.44 
L 506.724959 386.44 
L 506.724959 59.024 
L 48.17 59.024 
z
" style="fill: #1a1a1a"/>
   </g>
   <g id="matplotlib.axis_1">
    <g id="xtick_1">
     <g id="line2d_1">
      <path d="M 69.013407 386.44 
L 69.013407 59.024 
" clip-path="url(#p4448668032)" style="fill: none; stroke-dasharray: 0.8,1.32; stroke-dashoffset: 0; stroke: #ffffff; stroke-opacity: 0.2; stroke-width: 0.8"/>
     </g>
     <g id="line2d_2">
      <defs>
       <path id="mae34c6d757" d="M 0 0 
L 0 3.5 
" style="stroke: #ffffff; stroke-width: 0.8"/>
      </defs>
      <g>
       <use xlink:href="#mae34c6d757" x="69.013407" y="386.44" style="fill: #ffffff; stroke: #ffffff; stroke-width: 0.8"/>
      </g>
     </g>
     <g id="text_1">
      <!-- 0 -->
      <g style="fill: #ffffff" transform="translate(65.832157 401.038437) scale(0.1 -0.1)">
       <defs>
        <path id="DejaVuSans-30" d="M 2034 4250 
Q 1547 4250 1301 3770 
Q 1056 3291 1056 2328 
Q 1056 1369 1301 889 
Q 1547 409 2034 409 
Q 2525 409 2770 889 
Q 3016 1369 3016 2328 
Q 3016 3291 2770 3770 
Q 2525 4250 2034 4250 
z
M 2034 4750 
Q 2819 4750 3233 4129 
Q 3647 3509 3647 2328 
Q 3647 1150 3233 529 
Q 2819 -91 2034 -91 
Q 1250 -91 836 529 
Q 422 1150 422 2328 
Q 422 3509 836 4129 
Q 1250 4750 2034 4750 
z
" transform="scale(0.015625)"/>
       </defs>
       <use xlink:href="#DejaVuSans-30"/>
      </g>
     </g>
    </g>
    <g id="xtick_2">
     <g id="line2d_3">
      <path d="M 152.387036 386.44 
L 152.387036 59.024 
" clip-path="url(#p4448668032)" style="fill: none; stroke-dasharray: 0.8,1.32; stroke-dashoffset: 0; stroke: #ffffff; stroke-opacity: 0.2; stroke-width: 0.8"/>
     </g>
     <g id="line2d_4">
      <g>
       <use xlink:href="#mae34c6d757" x="152.387036" y="386.44" style="fill: #ffffff; stroke: #ffffff; stroke-width: 0.8"/>
      </g>
     </g>
     <g id="text_2">
      <!-- 2 -->
      <g style="fill: #ffffff" transform="translate(149.205786 401.038437) scale(0.1 -0.1)">
       <defs>
        <path id="DejaVuSans-32" d="M 1228 531 
L 3431 531 
L 3431 0 
L 469 0 
L 469 531 
Q 828 903 1448 1529 
Q 2069 2156 2228 2338 
Q 2531 2678 2651 2914 
Q 2772 3150 2772 3378 
Q 2772 3750 2511 3984 
Q 2250 4219 1831 4219 
Q 1534 4219 1204 4116 
Q 875 4013 500 3803 
L 500 4441 
Q 881 4594 1212 4672 
Q 1544 4750 1819 4750 
Q 2544 4750 2975 4387 
Q 3406 4025 3406 3419 
Q 3406 3131 3298 2873 
Q 3191 2616 2906 2266 
Q 2828 2175 2409 1742 
Q 1991 1309 1228 531 
z
" transform="scale(0.015625)"/>
       </defs>
       <use xlink:href="#DejaVuSans-32"/>
      </g>
     </g>
    </g>
    <g id="xtick_3">
     <g id="line2d_5">
      <path d="M 235.760665 386.44 
L 235.760665 59.024 
" clip-path="url(#p4448668032)" style="fill: none; stroke-dasharray: 0.8,1.32; stroke-dashoffset: 0; stroke: #ffffff; stroke-opacity: 0.2; stroke-width: 0.8"/>
     </g>
     <g id="line2d_6">
      <g>
       <use xlink:href="#mae34c6d757" x="235.760665" y="386.44" style="fill: #ffffff; stroke: #ffffff; stroke-width: 0.8"/>
      </g>
     </g>
     <g id="text_3">
      <!-- 4 -->
      <g style="fill: #ffffff" transform="translate(232.579415 401.038437) scale(0.1 -0.1)">
       <defs>
        <path id="DejaVuSans-34" d="M 2419 4116 
L 825 1625 
L 2419 1625 
L 2419 4116 
z
M 2253 4666 
L 3047 4666 
L 3047 1625 
L 3713 1625 
L 3713 1100 
L 3047 1100 
L 3047 0 
L 2419 0 
L 2419 1100 
L 313 1100 
L 313 1709 
L 2253 4666 
z
" transform="scale(0.015625)"/>
       </defs>
       <use xlink:href="#DejaVuSans-34"/>
      </g>
     </g>
    </g>
    <g id="xtick_4">
     <g id="line2d_7">
      <path d="M 319.134294 386.44 
L 319.134294 59.024 
" clip-path="url(#p4448668032)" style="fill: none; stroke-dasharray: 0.8,1.32; stroke-dashoffset: 0; stroke: #ffffff; stroke-opacity: 0.2; stroke-width: 0.8"/>
     </g>
     <g id="line2d_8">
      <g>
       <use xlink:href="#mae34c6d757" x="319.134294" y="386.44" style="fill: #ffffff; stroke: #ffffff; stroke-width: 0.8"/>
      </g>
     </g>
     <g id="text_4">
      <!-- 6 -->
      <g style="fill: #ffffff" transform="translate(315.953044 401.038437) scale(0.1 -0.1)">
       <defs>
        <path id="DejaVuSans-36" d="M 2113 2584 
Q 1688 2584 1439 2293 
Q 1191 2003 1191 1497 
Q 1191 994 1439 701 
Q 1688 409 2113 409 
Q 2538 409 2786 701 
Q 3034 994 3034 1497 
Q 3034 2003 2786 2293 
Q 2538 2584 2113 2584 
z
M 3366 4563 
L 3366 3988 
Q 3128 4100 2886 4159 
Q 2644 4219 2406 4219 
Q 1781 4219 1451 3797 
Q 1122 3375 1075 2522 
Q 1259 2794 1537 2939 
Q 1816 3084 2150 3084 
Q 2853 3084 3261 2657 
Q 3669 2231 3669 1497 
Q 3669 778 3244 343 
Q 2819 -91 2113 -91 
Q 1303 -91 875 529 
Q 447 1150 447 2328 
Q 447 3434 972 4092 
Q 1497 4750 2381 4750 
Q 2619 4750 2861 4703 
Q 3103 4656 3366 4563 
z
" transform="scale(0.015625)"/>
       </defs>
       <use xlink:href="#DejaVuSans-36"/>
      </g>
     </g>
    </g>
    <g id="xtick_5">
     <g id="line2d_9">
      <path d="M 402.507923 386.44 
L 402.507923 59.024 
" clip-path="url(#p4448668032)" style="fill: none; stroke-dasharray: 0.8,1.32; stroke-dashoffset: 0; stroke: #ffffff; stroke-opacity: 0.2; stroke-width: 0.8"/>
     </g>
     <g id="line2d_10">
      <g>
       <use xlink:href="#mae34c6d757" x="402.507923" y="386.44" style="fill: #ffffff; stroke: #ffffff; stroke-width: 0.8"/>
      </g>
     </g>
     <g id="text_5">
      <!-- 8 -->
      <g style="fill: #ffffff" transform="translate(399.326673 401.038437) scale(0.1 -0.1)">
       <defs>
        <path id="DejaVuSans-38" d="M 2034 2216 
Q 1584 2216 1326 1975 
Q 1069 1734 1069 1313 
Q 1069 891 1326 650 
Q 1584 409 2034 409 
Q 2484 409 2743 651 
Q 3003 894 3003 1313 
Q 3003 1734 2745 1975 
Q 2488 2216 2034 2216 
z
M 1403 2484 
Q 997 2584 770 2862 
Q 544 3141 544 3541 
Q 544 4100 942 4425 
Q 1341 4750 2034 4750 
Q 2731 4750 3128 4425 
Q 3525 4100 3525 3541 
Q 3525 3141 3298 2862 
Q 3072 2584 2669 2484 
Q 3125 2378 3379 2068 
Q 3634 1759 3634 1313 
Q 3634 634 3220 271 
Q 2806 -91 2034 -91 
Q 1263 -91 848 271 
Q 434 634 434 1313 
Q 434 1759 690 2068 
Q 947 2378 1403 2484 
z
M 1172 3481 
Q 1172 3119 1398 2916 
Q 1625 2713 2034 2713 
Q 2441 2713 2670 2916 
Q 2900 3119 2900 3481 
Q 2900 3844 2670 4047 
Q 2441 4250 2034 4250 
Q 1625 4250 1398 4047 
Q 1172 3844 1172 3481 
z
" transform="scale(0.015625)"/>
       </defs>
       <use xlink:href="#DejaVuSans-38"/>
      </g>
     </g>
    </g>
    <g id="xtick_6">
     <g id="line2d_11">
      <path d="M 485.881551 386.44 
L 485.881551 59.024 
" clip-path="url(#p4448668032)" style="fill: none; stroke-dasharray: 0.8,1.32; stroke-dashoffset: 0; stroke: #ffffff; stroke-opacity: 0.2; stroke-width: 0.8"/>
     </g>
     <g id="line2d_12">
      <g>
       <use xlink:href="#mae34c6d757" x="485.881551" y="386.44" style="fill: #ffffff; stroke: #ffffff; stroke-width: 0.8"/>
      </g>
     </g>
     <g id="text_6">
      <!-- 10 -->
      <g style="fill: #ffffff" transform="translate(479.519051 401.038437) scale(0.1 -0.1)">
       <defs>
        <path id="DejaVuSans-31" d="M 794 531 
L 1825 531 
L 1825 4091 
L 703 3866 
L 703 4441 
L 1819 4666 
L 2450 4666 
L 2450 531 
L 3481 531 
L 3481 0 
L 794 0 
L 794 531 
z
" transform="scale(0.015625)"/>
       </defs>
       <use xlink:href="#DejaVuSans-31"/>
       <use xlink:href="#DejaVuSans-30" transform="translate(63.623047 0)"/>
      </g>
     </g>
    </g>
    <g id="text_7">
     <!-- Units of Information Gathered → -->
     <g style="fill: #ffffff" transform="translate(164.848104 417.755938) scale(0.14 -0.14)">
      <defs>
       <path id="DejaVuSans-55" d="M 556 4666 
L 1191 4666 
L 1191 1831 
Q 1191 1081 1462 751 
Q 1734 422 2344 422 
Q 2950 422 3222 751 
Q 3494 1081 3494 1831 
L 3494 4666 
L 4128 4666 
L 4128 1753 
Q 4128 841 3676 375 
Q 3225 -91 2344 -91 
Q 1459 -91 1007 375 
Q 556 841 556 1753 
L 556 4666 
z
" transform="scale(0.015625)"/>
       <path id="DejaVuSans-6e" d="M 3513 2113 
L 3513 0 
L 2938 0 
L 2938 2094 
Q 2938 2591 2744 2837 
Q 2550 3084 2163 3084 
Q 1697 3084 1428 2787 
Q 1159 2491 1159 1978 
L 1159 0 
L 581 0 
L 581 3500 
L 1159 3500 
L 1159 2956 
Q 1366 3272 1645 3428 
Q 1925 3584 2291 3584 
Q 2894 3584 3203 3211 
Q 3513 2838 3513 2113 
z
" transform="scale(0.015625)"/>
       <path id="DejaVuSans-69" d="M 603 3500 
L 1178 3500 
L 1178 0 
L 603 0 
L 603 3500 
z
M 603 4863 
L 1178 4863 
L 1178 4134 
L 603 4134 
L 603 4863 
z
" transform="scale(0.015625)"/>
       <path id="DejaVuSans-74" d="M 1172 4494 
L 1172 3500 
L 2356 3500 
L 2356 3053 
L 1172 3053 
L 1172 1153 
Q 1172 725 1289 603 
Q 1406 481 1766 481 
L 2356 481 
L 2356 0 
L 1766 0 
Q 1100 0 847 248 
Q 594 497 594 1153 
L 594 3053 
L 172 3053 
L 172 3500 
L 594 3500 
L 594 4494 
L 1172 4494 
z
" transform="scale(0.015625)"/>
       <path id="DejaVuSans-73" d="M 2834 3397 
L 2834 2853 
Q 2591 2978 2328 3040 
Q 2066 3103 1784 3103 
Q 1356 3103 1142 2972 
Q 928 2841 928 2578 
Q 928 2378 1081 2264 
Q 1234 2150 1697 2047 
L 1894 2003 
Q 2506 1872 2764 1633 
Q 3022 1394 3022 966 
Q 3022 478 2636 193 
Q 2250 -91 1575 -91 
Q 1294 -91 989 -36 
Q 684 19 347 128 
L 347 722 
Q 666 556 975 473 
Q 1284 391 1588 391 
Q 1994 391 2212 530 
Q 2431 669 2431 922 
Q 2431 1156 2273 1281 
Q 2116 1406 1581 1522 
L 1381 1569 
Q 847 1681 609 1914 
Q 372 2147 372 2553 
Q 372 3047 722 3315 
Q 1072 3584 1716 3584 
Q 2034 3584 2315 3537 
Q 2597 3491 2834 3397 
z
" transform="scale(0.015625)"/>
       <path id="DejaVuSans-20" transform="scale(0.015625)"/>
       <path id="DejaVuSans-6f" d="M 1959 3097 
Q 1497 3097 1228 2736 
Q 959 2375 959 1747 
Q 959 1119 1226 758 
Q 1494 397 1959 397 
Q 2419 397 2687 759 
Q 2956 1122 2956 1747 
Q 2956 2369 2687 2733 
Q 2419 3097 1959 3097 
z
M 1959 3584 
Q 2709 3584 3137 3096 
Q 3566 2609 3566 1747 
Q 3566 888 3137 398 
Q 2709 -91 1959 -91 
Q 1206 -91 779 398 
Q 353 888 353 1747 
Q 353 2609 779 3096 
Q 1206 3584 1959 3584 
z
" transform="scale(0.015625)"/>
       <path id="DejaVuSans-66" d="M 2375 4863 
L 2375 4384 
L 1825 4384 
Q 1516 4384 1395 4259 
Q 1275 4134 1275 3809 
L 1275 3500 
L 2222 3500 
L 2222 3053 
L 1275 3053 
L 1275 0 
L 697 0 
L 697 3053 
L 147 3053 
L 147 3500 
L 697 3500 
L 697 3744 
Q 697 4328 969 4595 
Q 1241 4863 1831 4863 
L 2375 4863 
z
" transform="scale(0.015625)"/>
       <path id="DejaVuSans-49" d="M 628 4666 
L 1259 4666 
L 1259 0 
L 628 0 
L 628 4666 
z
" transform="scale(0.015625)"/>
       <path id="DejaVuSans-72" d="M 2631 2963 
Q 2534 3019 2420 3045 
Q 2306 3072 2169 3072 
Q 1681 3072 1420 2755 
Q 1159 2438 1159 1844 
L 1159 0 
L 581 0 
L 581 3500 
L 1159 3500 
L 1159 2956 
Q 1341 3275 1631 3429 
Q 1922 3584 2338 3584 
Q 2397 3584 2469 3576 
Q 2541 3569 2628 3553 
L 2631 2963 
z
" transform="scale(0.015625)"/>
       <path id="DejaVuSans-6d" d="M 3328 2828 
Q 3544 3216 3844 3400 
Q 4144 3584 4550 3584 
Q 5097 3584 5394 3201 
Q 5691 2819 5691 2113 
L 5691 0 
L 5113 0 
L 5113 2094 
Q 5113 2597 4934 2840 
Q 4756 3084 4391 3084 
Q 3944 3084 3684 2787 
Q 3425 2491 3425 1978 
L 3425 0 
L 2847 0 
L 2847 2094 
Q 2847 2600 2669 2842 
Q 2491 3084 2119 3084 
Q 1678 3084 1418 2786 
Q 1159 2488 1159 1978 
L 1159 0 
L 581 0 
L 581 3500 
L 1159 3500 
L 1159 2956 
Q 1356 3278 1631 3431 
Q 1906 3584 2284 3584 
Q 2666 3584 2933 3390 
Q 3200 3197 3328 2828 
z
" transform="scale(0.015625)"/>
       <path id="DejaVuSans-61" d="M 2194 1759 
Q 1497 1759 1228 1600 
Q 959 1441 959 1056 
Q 959 750 1161 570 
Q 1363 391 1709 391 
Q 2188 391 2477 730 
Q 2766 1069 2766 1631 
L 2766 1759 
L 2194 1759 
z
M 3341 1997 
L 3341 0 
L 2766 0 
L 2766 531 
Q 2569 213 2275 61 
Q 1981 -91 1556 -91 
Q 1019 -91 701 211 
Q 384 513 384 1019 
Q 384 1609 779 1909 
Q 1175 2209 1959 2209 
L 2766 2209 
L 2766 2266 
Q 2766 2663 2505 2880 
Q 2244 3097 1772 3097 
Q 1472 3097 1187 3025 
Q 903 2953 641 2809 
L 641 3341 
Q 956 3463 1253 3523 
Q 1550 3584 1831 3584 
Q 2591 3584 2966 3190 
Q 3341 2797 3341 1997 
z
" transform="scale(0.015625)"/>
       <path id="DejaVuSans-47" d="M 3809 666 
L 3809 1919 
L 2778 1919 
L 2778 2438 
L 4434 2438 
L 4434 434 
Q 4069 175 3628 42 
Q 3188 -91 2688 -91 
Q 1594 -91 976 548 
Q 359 1188 359 2328 
Q 359 3472 976 4111 
Q 1594 4750 2688 4750 
Q 3144 4750 3555 4637 
Q 3966 4525 4313 4306 
L 4313 3634 
Q 3963 3931 3569 4081 
Q 3175 4231 2741 4231 
Q 1884 4231 1454 3753 
Q 1025 3275 1025 2328 
Q 1025 1384 1454 906 
Q 1884 428 2741 428 
Q 3075 428 3337 486 
Q 3600 544 3809 666 
z
" transform="scale(0.015625)"/>
       <path id="DejaVuSans-68" d="M 3513 2113 
L 3513 0 
L 2938 0 
L 2938 2094 
Q 2938 2591 2744 2837 
Q 2550 3084 2163 3084 
Q 1697 3084 1428 2787 
Q 1159 2491 1159 1978 
L 1159 0 
L 581 0 
L 581 4863 
L 1159 4863 
L 1159 2956 
Q 1366 3272 1645 3428 
Q 1925 3584 2291 3584 
Q 2894 3584 3203 3211 
Q 3513 2838 3513 2113 
z
" transform="scale(0.015625)"/>
       <path id="DejaVuSans-65" d="M 3597 1894 
L 3597 1613 
L 953 1613 
Q 991 1019 1311 708 
Q 1631 397 2203 397 
Q 2534 397 2845 478 
Q 3156 559 3463 722 
L 3463 178 
Q 3153 47 2828 -22 
Q 2503 -91 2169 -91 
Q 1331 -91 842 396 
Q 353 884 353 1716 
Q 353 2575 817 3079 
Q 1281 3584 2069 3584 
Q 2775 3584 3186 3129 
Q 3597 2675 3597 1894 
z
M 3022 2063 
Q 3016 2534 2758 2815 
Q 2500 3097 2075 3097 
Q 1594 3097 1305 2825 
Q 1016 2553 972 2059 
L 3022 2063 
z
" transform="scale(0.015625)"/>
       <path id="DejaVuSans-64" d="M 2906 2969 
L 2906 4863 
L 3481 4863 
L 3481 0 
L 2906 0 
L 2906 525 
Q 2725 213 2448 61 
Q 2172 -91 1784 -91 
Q 1150 -91 751 415 
Q 353 922 353 1747 
Q 353 2572 751 3078 
Q 1150 3584 1784 3584 
Q 2172 3584 2448 3432 
Q 2725 3281 2906 2969 
z
M 947 1747 
Q 947 1113 1208 752 
Q 1469 391 1925 391 
Q 2381 391 2643 752 
Q 2906 1113 2906 1747 
Q 2906 2381 2643 2742 
Q 2381 3103 1925 3103 
Q 1469 3103 1208 2742 
Q 947 2381 947 1747 
z
" transform="scale(0.015625)"/>
       <path id="DejaVuSans-2192" d="M 5050 2147 
L 5050 1866 
L 3822 638 
L 3447 1013 
L 4175 1741 
L 366 1741 
L 366 2272 
L 4175 2272 
L 3447 3000 
L 3822 3375 
L 5050 2147 
z
" transform="scale(0.015625)"/>
      </defs>
      <use xlink:href="#DejaVuSans-55"/>
      <use xlink:href="#DejaVuSans-6e" transform="translate(73.193359 0)"/>
      <use xlink:href="#DejaVuSans-69" transform="translate(136.572266 0)"/>
      <use xlink:href="#DejaVuSans-74" transform="translate(164.355469 0)"/>
      <use xlink:href="#DejaVuSans-73" transform="translate(203.564453 0)"/>
      <use xlink:href="#DejaVuSans-20" transform="translate(255.664062 0)"/>
      <use xlink:href="#DejaVuSans-6f" transform="translate(287.451172 0)"/>
      <use xlink:href="#DejaVuSans-66" transform="translate(348.632812 0)"/>
      <use xlink:href="#DejaVuSans-20" transform="translate(383.837891 0)"/>
      <use xlink:href="#DejaVuSans-49" transform="translate(415.625 0)"/>
      <use xlink:href="#DejaVuSans-6e" transform="translate(445.117188 0)"/>
      <use xlink:href="#DejaVuSans-66" transform="translate(508.496094 0)"/>
      <use xlink:href="#DejaVuSans-6f" transform="translate(543.701172 0)"/>
      <use xlink:href="#DejaVuSans-72" transform="translate(604.882812 0)"/>
      <use xlink:href="#DejaVuSans-6d" transform="translate(644.246094 0)"/>
      <use xlink:href="#DejaVuSans-61" transform="translate(741.658203 0)"/>
      <use xlink:href="#DejaVuSans-74" transform="translate(802.9375 0)"/>
      <use xlink:href="#DejaVuSans-69" transform="translate(842.146484 0)"/>
      <use xlink:href="#DejaVuSans-6f" transform="translate(869.929688 0)"/>
      <use xlink:href="#DejaVuSans-6e" transform="translate(931.111328 0)"/>
      <use xlink:href="#DejaVuSans-20" transform="translate(994.490234 0)"/>
      <use xlink:href="#DejaVuSans-47" transform="translate(1026.277344 0)"/>
      <use xlink:href="#DejaVuSans-61" transform="translate(1103.767578 0)"/>
      <use xlink:href="#DejaVuSans-74" transform="translate(1165.046875 0)"/>
      <use xlink:href="#DejaVuSans-68" transform="translate(1204.255859 0)"/>
      <use xlink:href="#DejaVuSans-65" transform="translate(1267.634766 0)"/>
      <use xlink:href="#DejaVuSans-72" transform="translate(1329.158203 0)"/>
      <use xlink:href="#DejaVuSans-65" transform="translate(1368.021484 0)"/>
      <use xlink:href="#DejaVuSans-64" transform="translate(1429.544922 0)"/>
      <use xlink:href="#DejaVuSans-20" transform="translate(1493.021484 0)"/>
      <use xlink:href="#DejaVuSans-2192" transform="translate(1524.808594 0)"/>
     </g>
    </g>
   </g>
   <g id="matplotlib.axis_2">
    <g id="ytick_1">
     <g id="line2d_13">
      <path d="M 48.17 371.557455 
L 506.724959 371.557455 
" clip-path="url(#p4448668032)" style="fill: none; stroke-dasharray: 0.8,1.32; stroke-dashoffset: 0; stroke: #ffffff; stroke-opacity: 0.2; stroke-width: 0.8"/>
     </g>
     <g id="line2d_14">
      <defs>
       <path id="m82c3234c75" d="M 0 0 
L -3.5 0 
" style="stroke: #ffffff; stroke-width: 0.8"/>
      </defs>
      <g>
       <use xlink:href="#m82c3234c75" x="48.17" y="371.557455" style="fill: #ffffff; stroke: #ffffff; stroke-width: 0.8"/>
      </g>
     </g>
     <g id="text_8">
      <!-- 0 -->
      <g style="fill: #ffffff" transform="translate(34.8075 375.356673) scale(0.1 -0.1)">
       <use xlink:href="#DejaVuSans-30"/>
      </g>
     </g>
    </g>
    <g id="ytick_2">
     <g id="line2d_15">
      <path d="M 48.17 317.040789 
L 506.724959 317.040789 
" clip-path="url(#p4448668032)" style="fill: none; stroke-dasharray: 0.8,1.32; stroke-dashoffset: 0; stroke: #ffffff; stroke-opacity: 0.2; stroke-width: 0.8"/>
     </g>
     <g id="line2d_16">
      <g>
       <use xlink:href="#m82c3234c75" x="48.17" y="317.040789" style="fill: #ffffff; stroke: #ffffff; stroke-width: 0.8"/>
      </g>
     </g>
     <g id="text_9">
      <!-- 5 -->
      <g style="fill: #ffffff" transform="translate(34.8075 320.840008) scale(0.1 -0.1)">
       <defs>
        <path id="DejaVuSans-35" d="M 691 4666 
L 3169 4666 
L 3169 4134 
L 1269 4134 
L 1269 2991 
Q 1406 3038 1543 3061 
Q 1681 3084 1819 3084 
Q 2600 3084 3056 2656 
Q 3513 2228 3513 1497 
Q 3513 744 3044 326 
Q 2575 -91 1722 -91 
Q 1428 -91 1123 -41 
Q 819 9 494 109 
L 494 744 
Q 775 591 1075 516 
Q 1375 441 1709 441 
Q 2250 441 2565 725 
Q 2881 1009 2881 1497 
Q 2881 1984 2565 2268 
Q 2250 2553 1709 2553 
Q 1456 2553 1204 2497 
Q 953 2441 691 2322 
L 691 4666 
z
" transform="scale(0.015625)"/>
       </defs>
       <use xlink:href="#DejaVuSans-35"/>
      </g>
     </g>
    </g>
    <g id="ytick_3">
     <g id="line2d_17">
      <path d="M 48.17 262.524123 
L 506.724959 262.524123 
" clip-path="url(#p4448668032)" style="fill: none; stroke-dasharray: 0.8,1.32; stroke-dashoffset: 0; stroke: #ffffff; stroke-opacity: 0.2; stroke-width: 0.8"/>
     </g>
     <g id="line2d_18">
      <g>
       <use xlink:href="#m82c3234c75" x="48.17" y="262.524123" style="fill: #ffffff; stroke: #ffffff; stroke-width: 0.8"/>
      </g>
     </g>
     <g id="text_10">
      <!-- 10 -->
      <g style="fill: #ffffff" transform="translate(28.445 266.323342) scale(0.1 -0.1)">
       <use xlink:href="#DejaVuSans-31"/>
       <use xlink:href="#DejaVuSans-30" transform="translate(63.623047 0)"/>
      </g>
     </g>
    </g>
    <g id="ytick_4">
     <g id="line2d_19">
      <path d="M 48.17 208.007458 
L 506.724959 208.007458 
" clip-path="url(#p4448668032)" style="fill: none; stroke-dasharray: 0.8,1.32; stroke-dashoffset: 0; stroke: #ffffff; stroke-opacity: 0.2; stroke-width: 0.8"/>
     </g>
     <g id="line2d_20">
      <g>
       <use xlink:href="#m82c3234c75" x="48.17" y="208.007458" style="fill: #ffffff; stroke: #ffffff; stroke-width: 0.8"/>
      </g>
     </g>
     <g id="text_11">
      <!-- 15 -->
      <g style="fill: #ffffff" transform="translate(28.445 211.806676) scale(0.1 -0.1)">
       <use xlink:href="#DejaVuSans-31"/>
       <use xlink:href="#DejaVuSans-35" transform="translate(63.623047 0)"/>
      </g>
     </g>
    </g>
    <g id="ytick_5">
     <g id="line2d_21">
      <path d="M 48.17 153.490792 
L 506.724959 153.490792 
" clip-path="url(#p4448668032)" style="fill: none; stroke-dasharray: 0.8,1.32; stroke-dashoffset: 0; stroke: #ffffff; stroke-opacity: 0.2; stroke-width: 0.8"/>
     </g>
     <g id="line2d_22">
      <g>
       <use xlink:href="#m82c3234c75" x="48.17" y="153.490792" style="fill: #ffffff; stroke: #ffffff; stroke-width: 0.8"/>
      </g>
     </g>
     <g id="text_12">
      <!-- 20 -->
      <g style="fill: #ffffff" transform="translate(28.445 157.290011) scale(0.1 -0.1)">
       <use xlink:href="#DejaVuSans-32"/>
       <use xlink:href="#DejaVuSans-30" transform="translate(63.623047 0)"/>
      </g>
     </g>
    </g>
    <g id="ytick_6">
     <g id="line2d_23">
      <path d="M 48.17 98.974126 
L 506.724959 98.974126 
" clip-path="url(#p4448668032)" style="fill: none; stroke-dasharray: 0.8,1.32; stroke-dashoffset: 0; stroke: #ffffff; stroke-opacity: 0.2; stroke-width: 0.8"/>
     </g>
     <g id="line2d_24">
      <g>
       <use xlink:href="#m82c3234c75" x="48.17" y="98.974126" style="fill: #ffffff; stroke: #ffffff; stroke-width: 0.8"/>
      </g>
     </g>
     <g id="text_13">
      <!-- 25 -->
      <g style="fill: #ffffff" transform="translate(28.445 102.773345) scale(0.1 -0.1)">
       <use xlink:href="#DejaVuSans-32"/>
       <use xlink:href="#DejaVuSans-35" transform="translate(63.623047 0)"/>
      </g>
     </g>
    </g>
    <g id="text_14">
     <!-- Value / Cost ↑ -->
     <g style="fill: #ffffff" transform="translate(21.533437 272.415594) rotate(-90) scale(0.14 -0.14)">
      <defs>
       <path id="DejaVuSans-56" d="M 1831 0 
L 50 4666 
L 709 4666 
L 2188 738 
L 3669 4666 
L 4325 4666 
L 2547 0 
L 1831 0 
z
" transform="scale(0.015625)"/>
       <path id="DejaVuSans-6c" d="M 603 4863 
L 1178 4863 
L 1178 0 
L 603 0 
L 603 4863 
z
" transform="scale(0.015625)"/>
       <path id="DejaVuSans-75" d="M 544 1381 
L 544 3500 
L 1119 3500 
L 1119 1403 
Q 1119 906 1312 657 
Q 1506 409 1894 409 
Q 2359 409 2629 706 
Q 2900 1003 2900 1516 
L 2900 3500 
L 3475 3500 
L 3475 0 
L 2900 0 
L 2900 538 
Q 2691 219 2414 64 
Q 2138 -91 1772 -91 
Q 1169 -91 856 284 
Q 544 659 544 1381 
z
M 1991 3584 
L 1991 3584 
z
" transform="scale(0.015625)"/>
       <path id="DejaVuSans-2f" d="M 1625 4666 
L 2156 4666 
L 531 -594 
L 0 -594 
L 1625 4666 
z
" transform="scale(0.015625)"/>
       <path id="DejaVuSans-43" d="M 4122 4306 
L 4122 3641 
Q 3803 3938 3442 4084 
Q 3081 4231 2675 4231 
Q 1875 4231 1450 3742 
Q 1025 3253 1025 2328 
Q 1025 1406 1450 917 
Q 1875 428 2675 428 
Q 3081 428 3442 575 
Q 3803 722 4122 1019 
L 4122 359 
Q 3791 134 3420 21 
Q 3050 -91 2638 -91 
Q 1578 -91 968 557 
Q 359 1206 359 2328 
Q 359 3453 968 4101 
Q 1578 4750 2638 4750 
Q 3056 4750 3426 4639 
Q 3797 4528 4122 4306 
z
" transform="scale(0.015625)"/>
       <path id="DejaVuSans-2191" d="M 2541 4688 
L 2822 4688 
L 4047 3456 
L 3672 3081 
L 2947 3813 
L 2947 0 
L 2416 0 
L 2416 3813 
L 1684 3081 
L 1309 3456 
L 2541 4688 
z
" transform="scale(0.015625)"/>
      </defs>
      <use xlink:href="#DejaVuSans-56"/>
      <use xlink:href="#DejaVuSans-61" transform="translate(60.658203 0)"/>
      <use xlink:href="#DejaVuSans-6c" transform="translate(121.9375 0)"/>
      <use xlink:href="#DejaVuSans-75" transform="translate(149.720703 0)"/>
      <use xlink:href="#DejaVuSans-65" transform="translate(213.099609 0)"/>
      <use xlink:href="#DejaVuSans-20" transform="translate(274.623047 0)"/>
      <use xlink:href="#DejaVuSans-2f" transform="translate(306.410156 0)"/>
      <use xlink:href="#DejaVuSans-20" transform="translate(340.101562 0)"/>
      <use xlink:href="#DejaVuSans-43" transform="translate(371.888672 0)"/>
      <use xlink:href="#DejaVuSans-6f" transform="translate(441.712891 0)"/>
      <use xlink:href="#DejaVuSans-73" transform="translate(502.894531 0)"/>
      <use xlink:href="#DejaVuSans-74" transform="translate(554.994141 0)"/>
      <use xlink:href="#DejaVuSans-20" transform="translate(594.203125 0)"/>
      <use xlink:href="#DejaVuSans-2191" transform="translate(625.990234 0)"/>
     </g>
    </g>
   </g>
   <g id="line2d_25">
    <path d="M 69.013407 371.557455 
L 73.224197 361.065392 
L 77.434986 351.494924 
L 81.645775 342.697144 
L 85.856565 334.556548 
L 90.067354 326.981744 
L 94.278143 319.899168 
L 98.488933 313.248733 
L 102.699722 306.980724 
L 106.910511 301.053541 
L 111.121301 295.432021 
L 115.33209 290.086179 
L 119.542879 284.990236 
L 123.753669 280.121868 
L 127.964458 275.461615 
L 132.175247 270.99241 
L 136.386037 266.699204 
L 140.596826 262.56866 
L 144.807615 258.5889 
L 149.018405 254.749301 
L 153.229194 251.040327 
L 157.439983 247.453381 
L 161.650773 243.980688 
L 165.861562 240.615195 
L 170.072351 237.35048 
L 174.283141 234.180683 
L 178.49393 231.10044 
L 182.704719 228.104831 
L 186.915509 225.189327 
L 191.126298 222.349757 
L 195.337087 219.582265 
L 199.547877 216.883283 
L 203.758666 214.249499 
L 207.969455 211.677839 
L 212.180245 209.165439 
L 216.391034 206.70963 
L 220.601823 204.307917 
L 224.812613 201.95797 
L 229.023402 199.657604 
L 233.234191 197.404769 
L 237.444981 195.197541 
L 241.65577 193.03411 
L 245.866559 190.912772 
L 250.077349 188.83192 
L 254.288138 186.790038 
L 258.498927 184.785692 
L 262.709717 182.817528 
L 266.920506 180.884262 
L 271.131295 178.984679 
L 275.342085 177.117624 
L 279.552874 175.282003 
L 283.763663 173.476774 
L 287.974453 171.700948 
L 292.185242 169.953581 
L 296.396031 168.233777 
L 300.606821 166.540679 
L 304.81761 164.87347 
L 309.028399 163.231371 
L 313.239189 161.613636 
L 317.449978 160.019553 
L 321.660767 158.44844 
L 325.871557 156.899645 
L 330.082346 155.372543 
L 334.293135 153.866534 
L 338.503925 152.381043 
L 342.714714 150.915519 
L 346.925503 149.469433 
L 351.136293 148.042274 
L 355.347082 146.633555 
L 359.557871 145.242805 
L 363.768661 143.869571 
L 367.97945 142.513418 
L 372.190239 141.173925 
L 376.401029 139.850689 
L 380.611818 138.543319 
L 384.822607 137.25144 
L 389.033397 135.974688 
L 393.244186 134.712714 
L 397.454975 133.46518 
L 401.665765 132.231758 
L 405.876554 131.012133 
L 410.087343 129.806 
L 414.298133 128.613063 
L 418.508922 127.433037 
L 422.719711 126.265646 
L 426.930501 125.110621 
L 431.14129 123.967703 
L 435.352079 122.836642 
L 439.562869 121.717193 
L 443.773658 120.609122 
L 447.984447 119.512198 
L 452.195237 118.426199 
L 456.406026 117.350911 
L 460.616815 116.286124 
L 464.827605 115.231635 
L 469.038394 114.187246 
L 473.249183 113.152767 
L 477.459973 112.12801 
L 481.670762 111.112794 
L 485.881551 110.106945 
" clip-path="url(#p4448668032)" style="fill: none; stroke: #0000ff; stroke-width: 3; stroke-linecap: square"/>
   </g>
   <g id="line2d_26">
    <path d="M 69.013407 366.105788 
L 73.224197 365.881008 
L 77.434986 365.64696 
L 81.645775 365.403263 
L 85.856565 365.149517 
L 90.067354 364.885308 
L 94.278143 364.610207 
L 98.488933 364.323762 
L 102.699722 364.025507 
L 106.910511 363.714954 
L 111.121301 363.391597 
L 115.33209 363.054907 
L 119.542879 362.704335 
L 123.753669 362.339309 
L 127.964458 361.959232 
L 132.175247 361.563484 
L 136.386037 361.151419 
L 140.596826 360.722363 
L 144.807615 360.275618 
L 149.018405 359.810452 
L 153.229194 359.326107 
L 157.439983 358.821791 
L 161.650773 358.296682 
L 165.861562 357.749922 
L 170.072351 357.180618 
L 174.283141 356.587841 
L 178.49393 355.970623 
L 182.704719 355.327957 
L 186.915509 354.658792 
L 191.126298 353.962037 
L 195.337087 353.236553 
L 199.547877 352.481157 
L 203.758666 351.694615 
L 207.969455 350.875642 
L 212.180245 350.022902 
L 216.391034 349.135003 
L 220.601823 348.210494 
L 224.812613 347.247866 
L 229.023402 346.245548 
L 233.234191 345.201903 
L 237.444981 344.115227 
L 241.65577 342.983746 
L 245.866559 341.805612 
L 250.077349 340.578903 
L 254.288138 339.301614 
L 258.498927 337.971661 
L 262.709717 336.586872 
L 266.920506 335.144986 
L 271.131295 333.64365 
L 275.342085 332.080411 
L 279.552874 330.452717 
L 283.763663 328.757912 
L 287.974453 326.993227 
L 292.185242 325.155782 
L 296.396031 323.242577 
L 300.606821 321.250488 
L 304.81761 319.176261 
L 309.028399 317.016512 
L 313.239189 314.767713 
L 317.449978 312.426193 
L 321.660767 309.988129 
L 325.871557 307.449541 
L 330.082346 304.806282 
L 334.293135 302.054039 
L 338.503925 299.188316 
L 342.714714 296.204436 
L 346.925503 293.097527 
L 351.136293 289.862515 
L 355.347082 286.494119 
L 359.557871 282.98684 
L 363.768661 279.33495 
L 367.97945 275.532488 
L 372.190239 271.573246 
L 376.401029 267.450758 
L 380.611818 263.158294 
L 384.822607 258.688846 
L 389.033397 254.035117 
L 393.244186 249.189508 
L 397.454975 244.144107 
L 401.665765 238.890678 
L 405.876554 233.420642 
L 410.087343 227.72507 
L 414.298133 221.794661 
L 418.508922 215.619733 
L 422.719711 209.190204 
L 426.930501 202.495577 
L 431.14129 195.524921 
L 435.352079 188.266855 
L 439.562869 180.709529 
L 443.773658 172.840604 
L 447.984447 164.647232 
L 452.195237 156.116036 
L 456.406026 147.233088 
L 460.616815 137.983882 
L 464.827605 128.35332 
L 469.038394 118.325675 
L 473.249183 107.884578 
L 477.459973 97.012979 
L 481.670762 85.693129 
L 485.881551 73.906545 
" clip-path="url(#p4448668032)" style="fill: none; stroke: #ff0000; stroke-width: 3; stroke-linecap: square"/>
   </g>
   <g id="line2d_27">
    <defs>
     <path id="mc03fad5d66" d="M 0 7.5 
C 1.989023 7.5 3.896849 6.709753 5.303301 5.303301 
C 6.709753 3.896849 7.5 1.989023 7.5 0 
C 7.5 -1.989023 6.709753 -3.896849 5.303301 -5.303301 
C 3.896849 -6.709753 1.989023 -7.5 0 -7.5 
C -1.989023 -7.5 -3.896849 -6.709753 -5.303301 -5.303301 
C -6.709753 -3.896849 -7.5 -1.989023 -7.5 0 
C -7.5 1.989023 -6.709753 3.896849 -5.303301 5.303301 
C -3.896849 6.709753 -1.989023 7.5 0 7.5 
z
" style="stroke: #008000"/>
    </defs>
    <g clip-path="url(#p4448668032)">
     <use xlink:href="#mc03fad5d66" x="469.038394" y="114.187246" style="fill: #008000; stroke: #008000"/>
    </g>
   </g>
   <g id="line2d_28">
    <path d="M 469.038394 386.44 
L 469.038394 59.024 
" clip-path="url(#p4448668032)" style="fill: none; stroke-dasharray: 7.4,3.2; stroke-dashoffset: 0; stroke: #008000; stroke-opacity: 0.5; stroke-width: 2"/>
   </g>
   <g id="patch_3">
    <path d="M 48.17 386.44 
L 48.17 59.024 
" style="fill: none; stroke: #555555; stroke-width: 0.8; stroke-linejoin: miter; stroke-linecap: square"/>
   </g>
   <g id="patch_4">
    <path d="M 48.17 386.44 
L 506.724959 386.44 
" style="fill: none; stroke: #555555; stroke-width: 0.8; stroke-linejoin: miter; stroke-linecap: square"/>
   </g>
   <g id="patch_5">
    <path d="M 585.835612 86.95239 
Q 528.411858 100.342501 473.165752 113.224826 
" style="fill: none; stroke: #008000; stroke-width: 2; stroke-linecap: round"/>
    <path d="M 479.255295 114.679977 
L 473.165752 113.224826 
L 477.983599 109.226282 
" style="fill: none; stroke: #008000; stroke-width: 2; stroke-linecap: round"/>
   </g>
   <g id="text_15">
    <!-- Our 1-day timebox -->
    <g style="fill: #008000" transform="translate(552.412023 81.477247) scale(0.14 -0.14)">
     <defs>
      <path id="DejaVuSans-Bold-4f" d="M 2719 3878 
Q 2169 3878 1866 3472 
Q 1563 3066 1563 2328 
Q 1563 1594 1866 1187 
Q 2169 781 2719 781 
Q 3272 781 3575 1187 
Q 3878 1594 3878 2328 
Q 3878 3066 3575 3472 
Q 3272 3878 2719 3878 
z
M 2719 4750 
Q 3844 4750 4481 4106 
Q 5119 3463 5119 2328 
Q 5119 1197 4481 553 
Q 3844 -91 2719 -91 
Q 1597 -91 958 553 
Q 319 1197 319 2328 
Q 319 3463 958 4106 
Q 1597 4750 2719 4750 
z
" transform="scale(0.015625)"/>
      <path id="DejaVuSans-Bold-75" d="M 500 1363 
L 500 3500 
L 1625 3500 
L 1625 3150 
Q 1625 2866 1622 2436 
Q 1619 2006 1619 1863 
Q 1619 1441 1641 1255 
Q 1663 1069 1716 984 
Q 1784 875 1895 815 
Q 2006 756 2150 756 
Q 2500 756 2700 1025 
Q 2900 1294 2900 1772 
L 2900 3500 
L 4019 3500 
L 4019 0 
L 2900 0 
L 2900 506 
Q 2647 200 2364 54 
Q 2081 -91 1741 -91 
Q 1134 -91 817 281 
Q 500 653 500 1363 
z
" transform="scale(0.015625)"/>
      <path id="DejaVuSans-Bold-72" d="M 3138 2547 
Q 2991 2616 2845 2648 
Q 2700 2681 2553 2681 
Q 2122 2681 1889 2404 
Q 1656 2128 1656 1613 
L 1656 0 
L 538 0 
L 538 3500 
L 1656 3500 
L 1656 2925 
Q 1872 3269 2151 3426 
Q 2431 3584 2822 3584 
Q 2878 3584 2943 3579 
Q 3009 3575 3134 3559 
L 3138 2547 
z
" transform="scale(0.015625)"/>
      <path id="DejaVuSans-Bold-20" transform="scale(0.015625)"/>
      <path id="DejaVuSans-Bold-31" d="M 750 831 
L 1813 831 
L 1813 3847 
L 722 3622 
L 722 4441 
L 1806 4666 
L 2950 4666 
L 2950 831 
L 4013 831 
L 4013 0 
L 750 0 
L 750 831 
z
" transform="scale(0.015625)"/>
      <path id="DejaVuSans-Bold-2d" d="M 347 2297 
L 2309 2297 
L 2309 1388 
L 347 1388 
L 347 2297 
z
" transform="scale(0.015625)"/>
      <path id="DejaVuSans-Bold-64" d="M 2919 2988 
L 2919 4863 
L 4044 4863 
L 4044 0 
L 2919 0 
L 2919 506 
Q 2688 197 2409 53 
Q 2131 -91 1766 -91 
Q 1119 -91 703 423 
Q 288 938 288 1747 
Q 288 2556 703 3070 
Q 1119 3584 1766 3584 
Q 2128 3584 2408 3439 
Q 2688 3294 2919 2988 
z
M 2181 722 
Q 2541 722 2730 984 
Q 2919 1247 2919 1747 
Q 2919 2247 2730 2509 
Q 2541 2772 2181 2772 
Q 1825 2772 1636 2509 
Q 1447 2247 1447 1747 
Q 1447 1247 1636 984 
Q 1825 722 2181 722 
z
" transform="scale(0.015625)"/>
      <path id="DejaVuSans-Bold-61" d="M 2106 1575 
Q 1756 1575 1579 1456 
Q 1403 1338 1403 1106 
Q 1403 894 1545 773 
Q 1688 653 1941 653 
Q 2256 653 2472 879 
Q 2688 1106 2688 1447 
L 2688 1575 
L 2106 1575 
z
M 3816 1997 
L 3816 0 
L 2688 0 
L 2688 519 
Q 2463 200 2181 54 
Q 1900 -91 1497 -91 
Q 953 -91 614 226 
Q 275 544 275 1050 
Q 275 1666 698 1953 
Q 1122 2241 2028 2241 
L 2688 2241 
L 2688 2328 
Q 2688 2594 2478 2717 
Q 2269 2841 1825 2841 
Q 1466 2841 1156 2769 
Q 847 2697 581 2553 
L 581 3406 
Q 941 3494 1303 3539 
Q 1666 3584 2028 3584 
Q 2975 3584 3395 3211 
Q 3816 2838 3816 1997 
z
" transform="scale(0.015625)"/>
      <path id="DejaVuSans-Bold-79" d="M 78 3500 
L 1197 3500 
L 2138 1125 
L 2938 3500 
L 4056 3500 
L 2584 -331 
Q 2363 -916 2067 -1148 
Q 1772 -1381 1288 -1381 
L 641 -1381 
L 641 -647 
L 991 -647 
Q 1275 -647 1404 -556 
Q 1534 -466 1606 -231 
L 1638 -134 
L 78 3500 
z
" transform="scale(0.015625)"/>
      <path id="DejaVuSans-Bold-74" d="M 1759 4494 
L 1759 3500 
L 2913 3500 
L 2913 2700 
L 1759 2700 
L 1759 1216 
Q 1759 972 1856 886 
Q 1953 800 2241 800 
L 2816 800 
L 2816 0 
L 1856 0 
Q 1194 0 917 276 
Q 641 553 641 1216 
L 641 2700 
L 84 2700 
L 84 3500 
L 641 3500 
L 641 4494 
L 1759 4494 
z
" transform="scale(0.015625)"/>
      <path id="DejaVuSans-Bold-69" d="M 538 3500 
L 1656 3500 
L 1656 0 
L 538 0 
L 538 3500 
z
M 538 4863 
L 1656 4863 
L 1656 3950 
L 538 3950 
L 538 4863 
z
" transform="scale(0.015625)"/>
      <path id="DejaVuSans-Bold-6d" d="M 3781 2919 
Q 3994 3244 4286 3414 
Q 4578 3584 4928 3584 
Q 5531 3584 5847 3212 
Q 6163 2841 6163 2131 
L 6163 0 
L 5038 0 
L 5038 1825 
Q 5041 1866 5042 1909 
Q 5044 1953 5044 2034 
Q 5044 2406 4934 2573 
Q 4825 2741 4581 2741 
Q 4263 2741 4089 2478 
Q 3916 2216 3909 1719 
L 3909 0 
L 2784 0 
L 2784 1825 
Q 2784 2406 2684 2573 
Q 2584 2741 2328 2741 
Q 2006 2741 1831 2477 
Q 1656 2213 1656 1722 
L 1656 0 
L 531 0 
L 531 3500 
L 1656 3500 
L 1656 2988 
Q 1863 3284 2130 3434 
Q 2397 3584 2719 3584 
Q 3081 3584 3359 3409 
Q 3638 3234 3781 2919 
z
" transform="scale(0.015625)"/>
      <path id="DejaVuSans-Bold-65" d="M 4031 1759 
L 4031 1441 
L 1416 1441 
Q 1456 1047 1700 850 
Q 1944 653 2381 653 
Q 2734 653 3104 758 
Q 3475 863 3866 1075 
L 3866 213 
Q 3469 63 3072 -14 
Q 2675 -91 2278 -91 
Q 1328 -91 801 392 
Q 275 875 275 1747 
Q 275 2603 792 3093 
Q 1309 3584 2216 3584 
Q 3041 3584 3536 3087 
Q 4031 2591 4031 1759 
z
M 2881 2131 
Q 2881 2450 2695 2645 
Q 2509 2841 2209 2841 
Q 1884 2841 1681 2658 
Q 1478 2475 1428 2131 
L 2881 2131 
z
" transform="scale(0.015625)"/>
      <path id="DejaVuSans-Bold-62" d="M 2400 722 
Q 2759 722 2948 984 
Q 3138 1247 3138 1747 
Q 3138 2247 2948 2509 
Q 2759 2772 2400 2772 
Q 2041 2772 1848 2508 
Q 1656 2244 1656 1747 
Q 1656 1250 1848 986 
Q 2041 722 2400 722 
z
M 1656 2988 
Q 1888 3294 2169 3439 
Q 2450 3584 2816 3584 
Q 3463 3584 3878 3070 
Q 4294 2556 4294 1747 
Q 4294 938 3878 423 
Q 3463 -91 2816 -91 
Q 2450 -91 2169 54 
Q 1888 200 1656 506 
L 1656 0 
L 538 0 
L 538 4863 
L 1656 4863 
L 1656 2988 
z
" transform="scale(0.015625)"/>
      <path id="DejaVuSans-Bold-6f" d="M 2203 2784 
Q 1831 2784 1636 2517 
Q 1441 2250 1441 1747 
Q 1441 1244 1636 976 
Q 1831 709 2203 709 
Q 2569 709 2762 976 
Q 2956 1244 2956 1747 
Q 2956 2250 2762 2517 
Q 2569 2784 2203 2784 
z
M 2203 3584 
Q 3106 3584 3614 3096 
Q 4122 2609 4122 1747 
Q 4122 884 3614 396 
Q 3106 -91 2203 -91 
Q 1297 -91 786 396 
Q 275 884 275 1747 
Q 275 2609 786 3096 
Q 1297 3584 2203 3584 
z
" transform="scale(0.015625)"/>
      <path id="DejaVuSans-Bold-78" d="M 1422 1791 
L 159 3500 
L 1344 3500 
L 2059 2463 
L 2784 3500 
L 3969 3500 
L 2706 1797 
L 4031 0 
L 2847 0 
L 2059 1106 
L 1281 0 
L 97 0 
L 1422 1791 
z
" transform="scale(0.015625)"/>
     </defs>
     <use xlink:href="#DejaVuSans-Bold-4f"/>
     <use xlink:href="#DejaVuSans-Bold-75" transform="translate(85.009766 0)"/>
     <use xlink:href="#DejaVuSans-Bold-72" transform="translate(156.201172 0)"/>
     <use xlink:href="#DejaVuSans-Bold-20" transform="translate(205.517578 0)"/>
     <use xlink:href="#DejaVuSans-Bold-31" transform="translate(240.332031 0)"/>
     <use xlink:href="#DejaVuSans-Bold-2d" transform="translate(309.912109 0)"/>
     <use xlink:href="#DejaVuSans-Bold-64" transform="translate(351.416016 0)"/>
     <use xlink:href="#DejaVuSans-Bold-61" transform="translate(422.998047 0)"/>
     <use xlink:href="#DejaVuSans-Bold-79" transform="translate(487.353516 0)"/>
     <use xlink:href="#DejaVuSans-Bold-20" transform="translate(552.539062 0)"/>
     <use xlink:href="#DejaVuSans-Bold-74" transform="translate(587.353516 0)"/>
     <use xlink:href="#DejaVuSans-Bold-69" transform="translate(635.15625 0)"/>
     <use xlink:href="#DejaVuSans-Bold-6d" transform="translate(669.433594 0)"/>
     <use xlink:href="#DejaVuSans-Bold-65" transform="translate(773.632812 0)"/>
     <use xlink:href="#DejaVuSans-Bold-62" transform="translate(841.455078 0)"/>
     <use xlink:href="#DejaVuSans-Bold-6f" transform="translate(913.037109 0)"/>
     <use xlink:href="#DejaVuSans-Bold-78" transform="translate(981.738281 0)"/>
    </g>
   </g>
   <g id="text_16">
    <g id="patch_6">
     <path d="M 194.07385 214.196833 
L 329.8951 214.196833 
Q 333.4951 214.196833 333.4951 210.596833 
L 333.4951 185.545708 
Q 333.4951 181.945708 329.8951 181.945708 
L 194.07385 181.945708 
Q 190.47385 181.945708 190.47385 185.545708 
L 190.47385 210.596833 
Q 190.47385 214.196833 194.07385 214.196833 
z
" style="fill: #1a1a1a; opacity: 0.8; stroke: #00ffff; stroke-linejoin: miter"/>
    </g>
    <!-- Value (blue) -->
    <g style="fill: #00ffff" transform="translate(194.07385 194.570083) scale(0.12 -0.12)">
     <defs>
      <path id="DejaVuSans-Bold-56" d="M 31 4666 
L 1241 4666 
L 2478 1222 
L 3713 4666 
L 4922 4666 
L 3194 0 
L 1759 0 
L 31 4666 
z
" transform="scale(0.015625)"/>
      <path id="DejaVuSans-Bold-6c" d="M 538 4863 
L 1656 4863 
L 1656 0 
L 538 0 
L 538 4863 
z
" transform="scale(0.015625)"/>
      <path id="DejaVuSans-Bold-28" d="M 2413 -844 
L 1484 -844 
Q 1006 -72 778 623 
Q 550 1319 550 2003 
Q 550 2688 779 3389 
Q 1009 4091 1484 4856 
L 2413 4856 
Q 2013 4116 1813 3408 
Q 1613 2700 1613 2009 
Q 1613 1319 1811 609 
Q 2009 -100 2413 -844 
z
" transform="scale(0.015625)"/>
      <path id="DejaVuSans-Bold-29" d="M 513 -844 
Q 913 -100 1113 609 
Q 1313 1319 1313 2009 
Q 1313 2700 1113 3408 
Q 913 4116 513 4856 
L 1441 4856 
Q 1916 4091 2145 3389 
Q 2375 2688 2375 2003 
Q 2375 1319 2147 623 
Q 1919 -72 1441 -844 
L 513 -844 
z
" transform="scale(0.015625)"/>
     </defs>
     <use xlink:href="#DejaVuSans-Bold-56"/>
     <use xlink:href="#DejaVuSans-Bold-61" transform="translate(71.892578 0)"/>
     <use xlink:href="#DejaVuSans-Bold-6c" transform="translate(139.373047 0)"/>
     <use xlink:href="#DejaVuSans-Bold-75" transform="translate(173.650391 0)"/>
     <use xlink:href="#DejaVuSans-Bold-65" transform="translate(244.841797 0)"/>
     <use xlink:href="#DejaVuSans-Bold-20" transform="translate(312.664062 0)"/>
     <use xlink:href="#DejaVuSans-Bold-28" transform="translate(347.478516 0)"/>
     <use xlink:href="#DejaVuSans-Bold-62" transform="translate(393.181641 0)"/>
     <use xlink:href="#DejaVuSans-Bold-6c" transform="translate(464.763672 0)"/>
     <use xlink:href="#DejaVuSans-Bold-75" transform="translate(499.041016 0)"/>
     <use xlink:href="#DejaVuSans-Bold-65" transform="translate(570.232422 0)"/>
     <use xlink:href="#DejaVuSans-Bold-29" transform="translate(638.054688 0)"/>
    </g>
    <!-- High early, plateaus -->
    <g style="fill: #00ffff" transform="translate(194.07385 208.007458) scale(0.12 -0.12)">
     <defs>
      <path id="DejaVuSans-Bold-48" d="M 588 4666 
L 1791 4666 
L 1791 2888 
L 3566 2888 
L 3566 4666 
L 4769 4666 
L 4769 0 
L 3566 0 
L 3566 1978 
L 1791 1978 
L 1791 0 
L 588 0 
L 588 4666 
z
" transform="scale(0.015625)"/>
      <path id="DejaVuSans-Bold-67" d="M 2919 594 
Q 2688 288 2409 144 
Q 2131 0 1766 0 
Q 1125 0 706 504 
Q 288 1009 288 1791 
Q 288 2575 706 3076 
Q 1125 3578 1766 3578 
Q 2131 3578 2409 3434 
Q 2688 3291 2919 2981 
L 2919 3500 
L 4044 3500 
L 4044 353 
Q 4044 -491 3511 -936 
Q 2978 -1381 1966 -1381 
Q 1638 -1381 1331 -1331 
Q 1025 -1281 716 -1178 
L 716 -306 
Q 1009 -475 1290 -558 
Q 1572 -641 1856 -641 
Q 2406 -641 2662 -400 
Q 2919 -159 2919 353 
L 2919 594 
z
M 2181 2772 
Q 1834 2772 1640 2515 
Q 1447 2259 1447 1791 
Q 1447 1309 1634 1061 
Q 1822 813 2181 813 
Q 2531 813 2725 1069 
Q 2919 1325 2919 1791 
Q 2919 2259 2725 2515 
Q 2531 2772 2181 2772 
z
" transform="scale(0.015625)"/>
      <path id="DejaVuSans-Bold-68" d="M 4056 2131 
L 4056 0 
L 2931 0 
L 2931 347 
L 2931 1625 
Q 2931 2084 2911 2256 
Q 2891 2428 2841 2509 
Q 2775 2619 2662 2680 
Q 2550 2741 2406 2741 
Q 2056 2741 1856 2470 
Q 1656 2200 1656 1722 
L 1656 0 
L 538 0 
L 538 4863 
L 1656 4863 
L 1656 2988 
Q 1909 3294 2193 3439 
Q 2478 3584 2822 3584 
Q 3428 3584 3742 3212 
Q 4056 2841 4056 2131 
z
" transform="scale(0.015625)"/>
      <path id="DejaVuSans-Bold-2c" d="M 653 1209 
L 1778 1209 
L 1778 256 
L 1006 -909 
L 341 -909 
L 653 256 
L 653 1209 
z
" transform="scale(0.015625)"/>
      <path id="DejaVuSans-Bold-70" d="M 1656 506 
L 1656 -1331 
L 538 -1331 
L 538 3500 
L 1656 3500 
L 1656 2988 
Q 1888 3294 2169 3439 
Q 2450 3584 2816 3584 
Q 3463 3584 3878 3070 
Q 4294 2556 4294 1747 
Q 4294 938 3878 423 
Q 3463 -91 2816 -91 
Q 2450 -91 2169 54 
Q 1888 200 1656 506 
z
M 2400 2772 
Q 2041 2772 1848 2508 
Q 1656 2244 1656 1747 
Q 1656 1250 1848 986 
Q 2041 722 2400 722 
Q 2759 722 2948 984 
Q 3138 1247 3138 1747 
Q 3138 2247 2948 2509 
Q 2759 2772 2400 2772 
z
" transform="scale(0.015625)"/>
      <path id="DejaVuSans-Bold-73" d="M 3272 3391 
L 3272 2541 
Q 2913 2691 2578 2766 
Q 2244 2841 1947 2841 
Q 1628 2841 1473 2761 
Q 1319 2681 1319 2516 
Q 1319 2381 1436 2309 
Q 1553 2238 1856 2203 
L 2053 2175 
Q 2913 2066 3209 1816 
Q 3506 1566 3506 1031 
Q 3506 472 3093 190 
Q 2681 -91 1863 -91 
Q 1516 -91 1145 -36 
Q 775 19 384 128 
L 384 978 
Q 719 816 1070 734 
Q 1422 653 1784 653 
Q 2113 653 2278 743 
Q 2444 834 2444 1013 
Q 2444 1163 2330 1236 
Q 2216 1309 1875 1350 
L 1678 1375 
Q 931 1469 631 1722 
Q 331 1975 331 2491 
Q 331 3047 712 3315 
Q 1094 3584 1881 3584 
Q 2191 3584 2531 3537 
Q 2872 3491 3272 3391 
z
" transform="scale(0.015625)"/>
     </defs>
     <use xlink:href="#DejaVuSans-Bold-48"/>
     <use xlink:href="#DejaVuSans-Bold-69" transform="translate(83.691406 0)"/>
     <use xlink:href="#DejaVuSans-Bold-67" transform="translate(117.96875 0)"/>
     <use xlink:href="#DejaVuSans-Bold-68" transform="translate(189.550781 0)"/>
     <use xlink:href="#DejaVuSans-Bold-20" transform="translate(260.742188 0)"/>
     <use xlink:href="#DejaVuSans-Bold-65" transform="translate(295.556641 0)"/>
     <use xlink:href="#DejaVuSans-Bold-61" transform="translate(363.378906 0)"/>
     <use xlink:href="#DejaVuSans-Bold-72" transform="translate(430.859375 0)"/>
     <use xlink:href="#DejaVuSans-Bold-6c" transform="translate(480.175781 0)"/>
     <use xlink:href="#DejaVuSans-Bold-79" transform="translate(514.453125 0)"/>
     <use xlink:href="#DejaVuSans-Bold-2c" transform="translate(571.888672 0)"/>
     <use xlink:href="#DejaVuSans-Bold-20" transform="translate(609.876953 0)"/>
     <use xlink:href="#DejaVuSans-Bold-70" transform="translate(644.691406 0)"/>
     <use xlink:href="#DejaVuSans-Bold-6c" transform="translate(716.273438 0)"/>
     <use xlink:href="#DejaVuSans-Bold-61" transform="translate(750.550781 0)"/>
     <use xlink:href="#DejaVuSans-Bold-74" transform="translate(818.03125 0)"/>
     <use xlink:href="#DejaVuSans-Bold-65" transform="translate(865.833984 0)"/>
     <use xlink:href="#DejaVuSans-Bold-61" transform="translate(933.65625 0)"/>
     <use xlink:href="#DejaVuSans-Bold-75" transform="translate(1001.136719 0)"/>
     <use xlink:href="#DejaVuSans-Bold-73" transform="translate(1072.328125 0)"/>
    </g>
   </g>
   <g id="text_17">
    <g id="patch_7">
     <path d="M 360.821108 181.486833 
L 499.173608 181.486833 
Q 502.773608 181.486833 502.773608 177.886833 
L 502.773608 152.835708 
Q 502.773608 149.235708 499.173608 149.235708 
L 360.821108 149.235708 
Q 357.221108 149.235708 357.221108 152.835708 
L 357.221108 177.886833 
Q 357.221108 181.486833 360.821108 181.486833 
z
" style="fill: #1a1a1a; opacity: 0.8; stroke: #ffa500; stroke-linejoin: miter"/>
    </g>
    <!-- Cost (red) -->
    <g style="fill: #ffa500" transform="translate(360.821108 161.860083) scale(0.12 -0.12)">
     <defs>
      <path id="DejaVuSans-Bold-43" d="M 4288 256 
Q 3956 84 3597 -3 
Q 3238 -91 2847 -91 
Q 1681 -91 1000 561 
Q 319 1213 319 2328 
Q 319 3447 1000 4098 
Q 1681 4750 2847 4750 
Q 3238 4750 3597 4662 
Q 3956 4575 4288 4403 
L 4288 3438 
Q 3953 3666 3628 3772 
Q 3303 3878 2944 3878 
Q 2300 3878 1931 3465 
Q 1563 3053 1563 2328 
Q 1563 1606 1931 1193 
Q 2300 781 2944 781 
Q 3303 781 3628 887 
Q 3953 994 4288 1222 
L 4288 256 
z
" transform="scale(0.015625)"/>
     </defs>
     <use xlink:href="#DejaVuSans-Bold-43"/>
     <use xlink:href="#DejaVuSans-Bold-6f" transform="translate(73.388672 0)"/>
     <use xlink:href="#DejaVuSans-Bold-73" transform="translate(142.089844 0)"/>
     <use xlink:href="#DejaVuSans-Bold-74" transform="translate(201.611328 0)"/>
     <use xlink:href="#DejaVuSans-Bold-20" transform="translate(249.414062 0)"/>
     <use xlink:href="#DejaVuSans-Bold-28" transform="translate(284.228516 0)"/>
     <use xlink:href="#DejaVuSans-Bold-72" transform="translate(329.931641 0)"/>
     <use xlink:href="#DejaVuSans-Bold-65" transform="translate(379.248047 0)"/>
     <use xlink:href="#DejaVuSans-Bold-64" transform="translate(447.070312 0)"/>
     <use xlink:href="#DejaVuSans-Bold-29" transform="translate(518.652344 0)"/>
    </g>
    <!-- Grows exponentially -->
    <g style="fill: #ffa500" transform="translate(360.821108 175.297458) scale(0.12 -0.12)">
     <defs>
      <path id="DejaVuSans-Bold-47" d="M 4781 347 
Q 4331 128 3847 18 
Q 3363 -91 2847 -91 
Q 1681 -91 1000 561 
Q 319 1213 319 2328 
Q 319 3456 1012 4103 
Q 1706 4750 2913 4750 
Q 3378 4750 3804 4662 
Q 4231 4575 4609 4403 
L 4609 3438 
Q 4219 3659 3833 3768 
Q 3447 3878 3059 3878 
Q 2341 3878 1952 3476 
Q 1563 3075 1563 2328 
Q 1563 1588 1938 1184 
Q 2313 781 3003 781 
Q 3191 781 3352 804 
Q 3513 828 3641 878 
L 3641 1784 
L 2906 1784 
L 2906 2591 
L 4781 2591 
L 4781 347 
z
" transform="scale(0.015625)"/>
      <path id="DejaVuSans-Bold-77" d="M 225 3500 
L 1313 3500 
L 1900 1088 
L 2491 3500 
L 3425 3500 
L 4013 1113 
L 4603 3500 
L 5691 3500 
L 4769 0 
L 3547 0 
L 2956 2406 
L 2369 0 
L 1147 0 
L 225 3500 
z
" transform="scale(0.015625)"/>
      <path id="DejaVuSans-Bold-6e" d="M 4056 2131 
L 4056 0 
L 2931 0 
L 2931 347 
L 2931 1631 
Q 2931 2084 2911 2256 
Q 2891 2428 2841 2509 
Q 2775 2619 2662 2680 
Q 2550 2741 2406 2741 
Q 2056 2741 1856 2470 
Q 1656 2200 1656 1722 
L 1656 0 
L 538 0 
L 538 3500 
L 1656 3500 
L 1656 2988 
Q 1909 3294 2193 3439 
Q 2478 3584 2822 3584 
Q 3428 3584 3742 3212 
Q 4056 2841 4056 2131 
z
" transform="scale(0.015625)"/>
     </defs>
     <use xlink:href="#DejaVuSans-Bold-47"/>
     <use xlink:href="#DejaVuSans-Bold-72" transform="translate(82.080078 0)"/>
     <use xlink:href="#DejaVuSans-Bold-6f" transform="translate(131.396484 0)"/>
     <use xlink:href="#DejaVuSans-Bold-77" transform="translate(200.097656 0)"/>
     <use xlink:href="#DejaVuSans-Bold-73" transform="translate(292.480469 0)"/>
     <use xlink:href="#DejaVuSans-Bold-20" transform="translate(352.001953 0)"/>
     <use xlink:href="#DejaVuSans-Bold-65" transform="translate(386.816406 0)"/>
     <use xlink:href="#DejaVuSans-Bold-78" transform="translate(454.638672 0)"/>
     <use xlink:href="#DejaVuSans-Bold-70" transform="translate(519.140625 0)"/>
     <use xlink:href="#DejaVuSans-Bold-6f" transform="translate(590.722656 0)"/>
     <use xlink:href="#DejaVuSans-Bold-6e" transform="translate(659.423828 0)"/>
     <use xlink:href="#DejaVuSans-Bold-65" transform="translate(730.615234 0)"/>
     <use xlink:href="#DejaVuSans-Bold-6e" transform="translate(798.4375 0)"/>
     <use xlink:href="#DejaVuSans-Bold-74" transform="translate(869.628906 0)"/>
     <use xlink:href="#DejaVuSans-Bold-69" transform="translate(917.431641 0)"/>
     <use xlink:href="#DejaVuSans-Bold-61" transform="translate(951.708984 0)"/>
     <use xlink:href="#DejaVuSans-Bold-6c" transform="translate(1019.189453 0)"/>
     <use xlink:href="#DejaVuSans-Bold-6c" transform="translate(1053.466797 0)"/>
     <use xlink:href="#DejaVuSans-Bold-79" transform="translate(1087.744141 0)"/>
    </g>
   </g>
   <g id="text_18">
    <!-- Value of Information: Know When to Stop -->
    <g style="fill: #ffffff" transform="translate(89.914979 21.1075) scale(0.16 -0.16)">
     <defs>
      <path id="DejaVuSans-Bold-66" d="M 2841 4863 
L 2841 4128 
L 2222 4128 
Q 1984 4128 1890 4042 
Q 1797 3956 1797 3744 
L 1797 3500 
L 2753 3500 
L 2753 2700 
L 1797 2700 
L 1797 0 
L 678 0 
L 678 2700 
L 122 2700 
L 122 3500 
L 678 3500 
L 678 3744 
Q 678 4316 997 4589 
Q 1316 4863 1984 4863 
L 2841 4863 
z
" transform="scale(0.015625)"/>
      <path id="DejaVuSans-Bold-49" d="M 588 4666 
L 1791 4666 
L 1791 0 
L 588 0 
L 588 4666 
z
" transform="scale(0.015625)"/>
      <path id="DejaVuSans-Bold-3a" d="M 716 3500 
L 1844 3500 
L 1844 2291 
L 716 2291 
L 716 3500 
z
M 716 1209 
L 1844 1209 
L 1844 0 
L 716 0 
L 716 1209 
z
" transform="scale(0.015625)"/>
      <path id="DejaVuSans-Bold-4b" d="M 588 4666 
L 1791 4666 
L 1791 2963 
L 3525 4666 
L 4922 4666 
L 2675 2456 
L 5153 0 
L 3647 0 
L 1791 1838 
L 1791 0 
L 588 0 
L 588 4666 
z
" transform="scale(0.015625)"/>
      <path id="DejaVuSans-Bold-57" d="M 191 4666 
L 1344 4666 
L 2150 1275 
L 2950 4666 
L 4109 4666 
L 4909 1275 
L 5716 4666 
L 6859 4666 
L 5759 0 
L 4372 0 
L 3525 3547 
L 2688 0 
L 1300 0 
L 191 4666 
z
" transform="scale(0.015625)"/>
      <path id="DejaVuSans-Bold-53" d="M 3834 4519 
L 3834 3531 
Q 3450 3703 3084 3790 
Q 2719 3878 2394 3878 
Q 1963 3878 1756 3759 
Q 1550 3641 1550 3391 
Q 1550 3203 1689 3098 
Q 1828 2994 2194 2919 
L 2706 2816 
Q 3484 2659 3812 2340 
Q 4141 2022 4141 1434 
Q 4141 663 3683 286 
Q 3225 -91 2284 -91 
Q 1841 -91 1394 -6 
Q 947 78 500 244 
L 500 1259 
Q 947 1022 1364 901 
Q 1781 781 2169 781 
Q 2563 781 2772 912 
Q 2981 1044 2981 1288 
Q 2981 1506 2839 1625 
Q 2697 1744 2272 1838 
L 1806 1941 
Q 1106 2091 782 2419 
Q 459 2747 459 3303 
Q 459 4000 909 4375 
Q 1359 4750 2203 4750 
Q 2588 4750 2994 4692 
Q 3400 4634 3834 4519 
z
" transform="scale(0.015625)"/>
     </defs>
     <use xlink:href="#DejaVuSans-Bold-56"/>
     <use xlink:href="#DejaVuSans-Bold-61" transform="translate(71.892578 0)"/>
     <use xlink:href="#DejaVuSans-Bold-6c" transform="translate(139.373047 0)"/>
     <use xlink:href="#DejaVuSans-Bold-75" transform="translate(173.650391 0)"/>
     <use xlink:href="#DejaVuSans-Bold-65" transform="translate(244.841797 0)"/>
     <use xlink:href="#DejaVuSans-Bold-20" transform="translate(312.664062 0)"/>
     <use xlink:href="#DejaVuSans-Bold-6f" transform="translate(347.478516 0)"/>
     <use xlink:href="#DejaVuSans-Bold-66" transform="translate(416.179688 0)"/>
     <use xlink:href="#DejaVuSans-Bold-20" transform="translate(459.685547 0)"/>
     <use xlink:href="#DejaVuSans-Bold-49" transform="translate(494.5 0)"/>
     <use xlink:href="#DejaVuSans-Bold-6e" transform="translate(531.707031 0)"/>
     <use xlink:href="#DejaVuSans-Bold-66" transform="translate(602.898438 0)"/>
     <use xlink:href="#DejaVuSans-Bold-6f" transform="translate(646.404297 0)"/>
     <use xlink:href="#DejaVuSans-Bold-72" transform="translate(715.105469 0)"/>
     <use xlink:href="#DejaVuSans-Bold-6d" transform="translate(764.421875 0)"/>
     <use xlink:href="#DejaVuSans-Bold-61" transform="translate(868.621094 0)"/>
     <use xlink:href="#DejaVuSans-Bold-74" transform="translate(936.101562 0)"/>
     <use xlink:href="#DejaVuSans-Bold-69" transform="translate(983.904297 0)"/>
     <use xlink:href="#DejaVuSans-Bold-6f" transform="translate(1018.181641 0)"/>
     <use xlink:href="#DejaVuSans-Bold-6e" transform="translate(1086.882812 0)"/>
     <use xlink:href="#DejaVuSans-Bold-3a" transform="translate(1158.074219 0)"/>
     <use xlink:href="#DejaVuSans-Bold-20" transform="translate(1198.064453 0)"/>
     <use xlink:href="#DejaVuSans-Bold-4b" transform="translate(1232.878906 0)"/>
     <use xlink:href="#DejaVuSans-Bold-6e" transform="translate(1310.369141 0)"/>
     <use xlink:href="#DejaVuSans-Bold-6f" transform="translate(1381.560547 0)"/>
     <use xlink:href="#DejaVuSans-Bold-77" transform="translate(1450.261719 0)"/>
     <use xlink:href="#DejaVuSans-Bold-20" transform="translate(1542.644531 0)"/>
     <use xlink:href="#DejaVuSans-Bold-57" transform="translate(1577.458984 0)"/>
     <use xlink:href="#DejaVuSans-Bold-68" transform="translate(1687.761719 0)"/>
     <use xlink:href="#DejaVuSans-Bold-65" transform="translate(1758.953125 0)"/>
     <use xlink:href="#DejaVuSans-Bold-6e" transform="translate(1826.775391 0)"/>
     <use xlink:href="#DejaVuSans-Bold-20" transform="translate(1897.966797 0)"/>
     <use xlink:href="#DejaVuSans-Bold-74" transform="translate(1932.78125 0)"/>
     <use xlink:href="#DejaVuSans-Bold-6f" transform="translate(1980.583984 0)"/>
     <use xlink:href="#DejaVuSans-Bold-20" transform="translate(2049.285156 0)"/>
     <use xlink:href="#DejaVuSans-Bold-53" transform="translate(2084.099609 0)"/>
     <use xlink:href="#DejaVuSans-Bold-74" transform="translate(2156.121094 0)"/>
     <use xlink:href="#DejaVuSans-Bold-6f" transform="translate(2203.923828 0)"/>
     <use xlink:href="#DejaVuSans-Bold-70" transform="translate(2272.625 0)"/>
    </g>
    <!-- "Science to Act, Not Science to Know" -->
    <g style="fill: #ffffff" transform="translate(106.097479 39.024) scale(0.16 -0.16)">
     <defs>
      <path id="DejaVuSans-Bold-22" d="M 2725 4666 
L 2725 2931 
L 1984 2931 
L 1984 4666 
L 2725 4666 
z
M 1350 4666 
L 1350 2931 
L 609 2931 
L 609 4666 
L 1350 4666 
z
" transform="scale(0.015625)"/>
      <path id="DejaVuSans-Bold-63" d="M 3366 3391 
L 3366 2478 
Q 3138 2634 2908 2709 
Q 2678 2784 2431 2784 
Q 1963 2784 1702 2511 
Q 1441 2238 1441 1747 
Q 1441 1256 1702 982 
Q 1963 709 2431 709 
Q 2694 709 2930 787 
Q 3166 866 3366 1019 
L 3366 103 
Q 3103 6 2833 -42 
Q 2563 -91 2291 -91 
Q 1344 -91 809 395 
Q 275 881 275 1747 
Q 275 2613 809 3098 
Q 1344 3584 2291 3584 
Q 2566 3584 2833 3536 
Q 3100 3488 3366 3391 
z
" transform="scale(0.015625)"/>
      <path id="DejaVuSans-Bold-41" d="M 3419 850 
L 1538 850 
L 1241 0 
L 31 0 
L 1759 4666 
L 3194 4666 
L 4922 0 
L 3713 0 
L 3419 850 
z
M 1838 1716 
L 3116 1716 
L 2478 3572 
L 1838 1716 
z
" transform="scale(0.015625)"/>
      <path id="DejaVuSans-Bold-4e" d="M 588 4666 
L 1931 4666 
L 3628 1466 
L 3628 4666 
L 4769 4666 
L 4769 0 
L 3425 0 
L 1728 3200 
L 1728 0 
L 588 0 
L 588 4666 
z
" transform="scale(0.015625)"/>
     </defs>
     <use xlink:href="#DejaVuSans-Bold-22"/>
     <use xlink:href="#DejaVuSans-Bold-53" transform="translate(52.099609 0)"/>
     <use xlink:href="#DejaVuSans-Bold-63" transform="translate(124.121094 0)"/>
     <use xlink:href="#DejaVuSans-Bold-69" transform="translate(183.398438 0)"/>
     <use xlink:href="#DejaVuSans-Bold-65" transform="translate(217.675781 0)"/>
     <use xlink:href="#DejaVuSans-Bold-6e" transform="translate(285.498047 0)"/>
     <use xlink:href="#DejaVuSans-Bold-63" transform="translate(356.689453 0)"/>
     <use xlink:href="#DejaVuSans-Bold-65" transform="translate(415.966797 0)"/>
     <use xlink:href="#DejaVuSans-Bold-20" transform="translate(483.789062 0)"/>
     <use xlink:href="#DejaVuSans-Bold-74" transform="translate(518.603516 0)"/>
     <use xlink:href="#DejaVuSans-Bold-6f" transform="translate(566.40625 0)"/>
     <use xlink:href="#DejaVuSans-Bold-20" transform="translate(635.107422 0)"/>
     <use xlink:href="#DejaVuSans-Bold-41" transform="translate(669.921875 0)"/>
     <use xlink:href="#DejaVuSans-Bold-63" transform="translate(747.314453 0)"/>
     <use xlink:href="#DejaVuSans-Bold-74" transform="translate(806.591797 0)"/>
     <use xlink:href="#DejaVuSans-Bold-2c" transform="translate(854.394531 0)"/>
     <use xlink:href="#DejaVuSans-Bold-20" transform="translate(892.382812 0)"/>
     <use xlink:href="#DejaVuSans-Bold-4e" transform="translate(927.197266 0)"/>
     <use xlink:href="#DejaVuSans-Bold-6f" transform="translate(1010.888672 0)"/>
     <use xlink:href="#DejaVuSans-Bold-74" transform="translate(1079.589844 0)"/>
     <use xlink:href="#DejaVuSans-Bold-20" transform="translate(1127.392578 0)"/>
     <use xlink:href="#DejaVuSans-Bold-53" transform="translate(1162.207031 0)"/>
     <use xlink:href="#DejaVuSans-Bold-63" transform="translate(1234.228516 0)"/>
     <use xlink:href="#DejaVuSans-Bold-69" transform="translate(1293.505859 0)"/>
     <use xlink:href="#DejaVuSans-Bold-65" transform="translate(1327.783203 0)"/>
     <use xlink:href="#DejaVuSans-Bold-6e" transform="translate(1395.605469 0)"/>
     <use xlink:href="#DejaVuSans-Bold-63" transform="translate(1466.796875 0)"/>
     <use xlink:href="#DejaVuSans-Bold-65" transform="translate(1526.074219 0)"/>
     <use xlink:href="#DejaVuSans-Bold-20" transform="translate(1593.896484 0)"/>
     <use xlink:href="#DejaVuSans-Bold-74" transform="translate(1628.710938 0)"/>
     <use xlink:href="#DejaVuSans-Bold-6f" transform="translate(1676.513672 0)"/>
     <use xlink:href="#DejaVuSans-Bold-20" transform="translate(1745.214844 0)"/>
     <use xlink:href="#DejaVuSans-Bold-4b" transform="translate(1780.029297 0)"/>
     <use xlink:href="#DejaVuSans-Bold-6e" transform="translate(1857.519531 0)"/>
     <use xlink:href="#DejaVuSans-Bold-6f" transform="translate(1928.710938 0)"/>
     <use xlink:href="#DejaVuSans-Bold-77" transform="translate(1997.412109 0)"/>
     <use xlink:href="#DejaVuSans-Bold-22" transform="translate(2089.794922 0)"/>
    </g>
   </g>
   <g id="legend_1">
    <g id="patch_8">
     <path d="M 55.87 380.94 
L 217.891406 380.94 
Q 220.091406 380.94 220.091406 378.74 
L 220.091406 331.402187 
Q 220.091406 329.202187 217.891406 329.202187 
L 55.87 329.202187 
Q 53.67 329.202187 53.67 331.402187 
L 53.67 378.74 
Q 53.67 380.94 55.87 380.94 
z
" style="opacity: 0.9; stroke: #cccccc; stroke-linejoin: miter"/>
    </g>
    <g id="line2d_29">
     <path d="M 58.07 338.110469 
L 69.07 338.110469 
L 80.07 338.110469 
" style="fill: none; stroke: #0000ff; stroke-width: 3; stroke-linecap: square"/>
    </g>
    <g id="text_19">
     <!-- Value of Information -->
     <g style="fill: #ffffff" transform="translate(88.87 341.960469) scale(0.11 -0.11)">
      <use xlink:href="#DejaVuSans-56"/>
      <use xlink:href="#DejaVuSans-61" transform="translate(60.658203 0)"/>
      <use xlink:href="#DejaVuSans-6c" transform="translate(121.9375 0)"/>
      <use xlink:href="#DejaVuSans-75" transform="translate(149.720703 0)"/>
      <use xlink:href="#DejaVuSans-65" transform="translate(213.099609 0)"/>
      <use xlink:href="#DejaVuSans-20" transform="translate(274.623047 0)"/>
      <use xlink:href="#DejaVuSans-6f" transform="translate(306.410156 0)"/>
      <use xlink:href="#DejaVuSans-66" transform="translate(367.591797 0)"/>
      <use xlink:href="#DejaVuSans-20" transform="translate(402.796875 0)"/>
      <use xlink:href="#DejaVuSans-49" transform="translate(434.583984 0)"/>
      <use xlink:href="#DejaVuSans-6e" transform="translate(464.076172 0)"/>
      <use xlink:href="#DejaVuSans-66" transform="translate(527.455078 0)"/>
      <use xlink:href="#DejaVuSans-6f" transform="translate(562.660156 0)"/>
      <use xlink:href="#DejaVuSans-72" transform="translate(623.841797 0)"/>
      <use xlink:href="#DejaVuSans-6d" transform="translate(663.205078 0)"/>
      <use xlink:href="#DejaVuSans-61" transform="translate(760.617188 0)"/>
      <use xlink:href="#DejaVuSans-74" transform="translate(821.896484 0)"/>
      <use xlink:href="#DejaVuSans-69" transform="translate(861.105469 0)"/>
      <use xlink:href="#DejaVuSans-6f" transform="translate(888.888672 0)"/>
      <use xlink:href="#DejaVuSans-6e" transform="translate(950.070312 0)"/>
     </g>
    </g>
    <g id="line2d_30">
     <path d="M 58.07 354.256406 
L 69.07 354.256406 
L 80.07 354.256406 
" style="fill: none; stroke: #ff0000; stroke-width: 3; stroke-linecap: square"/>
    </g>
    <g id="text_20">
     <!-- Cost to Gather -->
     <g style="fill: #ffffff" transform="translate(88.87 358.106406) scale(0.11 -0.11)">
      <use xlink:href="#DejaVuSans-43"/>
      <use xlink:href="#DejaVuSans-6f" transform="translate(69.824219 0)"/>
      <use xlink:href="#DejaVuSans-73" transform="translate(131.005859 0)"/>
      <use xlink:href="#DejaVuSans-74" transform="translate(183.105469 0)"/>
      <use xlink:href="#DejaVuSans-20" transform="translate(222.314453 0)"/>
      <use xlink:href="#DejaVuSans-74" transform="translate(254.101562 0)"/>
      <use xlink:href="#DejaVuSans-6f" transform="translate(293.310547 0)"/>
      <use xlink:href="#DejaVuSans-20" transform="translate(354.492188 0)"/>
      <use xlink:href="#DejaVuSans-47" transform="translate(386.279297 0)"/>
      <use xlink:href="#DejaVuSans-61" transform="translate(463.769531 0)"/>
      <use xlink:href="#DejaVuSans-74" transform="translate(525.048828 0)"/>
      <use xlink:href="#DejaVuSans-68" transform="translate(564.257812 0)"/>
      <use xlink:href="#DejaVuSans-65" transform="translate(627.636719 0)"/>
      <use xlink:href="#DejaVuSans-72" transform="translate(689.160156 0)"/>
     </g>
    </g>
    <g id="line2d_31">
     <g>
      <use xlink:href="#mc03fad5d66" x="69.07" y="370.402344" style="fill: #008000; stroke: #008000"/>
     </g>
    </g>
    <g id="text_21">
     <!-- Optimal Stopping Point -->
     <g style="fill: #ffffff" transform="translate(88.87 374.252344) scale(0.11 -0.11)">
      <defs>
       <path id="DejaVuSans-4f" d="M 2522 4238 
Q 1834 4238 1429 3725 
Q 1025 3213 1025 2328 
Q 1025 1447 1429 934 
Q 1834 422 2522 422 
Q 3209 422 3611 934 
Q 4013 1447 4013 2328 
Q 4013 3213 3611 3725 
Q 3209 4238 2522 4238 
z
M 2522 4750 
Q 3503 4750 4090 4092 
Q 4678 3434 4678 2328 
Q 4678 1225 4090 567 
Q 3503 -91 2522 -91 
Q 1538 -91 948 565 
Q 359 1222 359 2328 
Q 359 3434 948 4092 
Q 1538 4750 2522 4750 
z
" transform="scale(0.015625)"/>
       <path id="DejaVuSans-70" d="M 1159 525 
L 1159 -1331 
L 581 -1331 
L 581 3500 
L 1159 3500 
L 1159 2969 
Q 1341 3281 1617 3432 
Q 1894 3584 2278 3584 
Q 2916 3584 3314 3078 
Q 3713 2572 3713 1747 
Q 3713 922 3314 415 
Q 2916 -91 2278 -91 
Q 1894 -91 1617 61 
Q 1341 213 1159 525 
z
M 3116 1747 
Q 3116 2381 2855 2742 
Q 2594 3103 2138 3103 
Q 1681 3103 1420 2742 
Q 1159 2381 1159 1747 
Q 1159 1113 1420 752 
Q 1681 391 2138 391 
Q 2594 391 2855 752 
Q 3116 1113 3116 1747 
z
" transform="scale(0.015625)"/>
       <path id="DejaVuSans-53" d="M 3425 4513 
L 3425 3897 
Q 3066 4069 2747 4153 
Q 2428 4238 2131 4238 
Q 1616 4238 1336 4038 
Q 1056 3838 1056 3469 
Q 1056 3159 1242 3001 
Q 1428 2844 1947 2747 
L 2328 2669 
Q 3034 2534 3370 2195 
Q 3706 1856 3706 1288 
Q 3706 609 3251 259 
Q 2797 -91 1919 -91 
Q 1588 -91 1214 -16 
Q 841 59 441 206 
L 441 856 
Q 825 641 1194 531 
Q 1563 422 1919 422 
Q 2459 422 2753 634 
Q 3047 847 3047 1241 
Q 3047 1584 2836 1778 
Q 2625 1972 2144 2069 
L 1759 2144 
Q 1053 2284 737 2584 
Q 422 2884 422 3419 
Q 422 4038 858 4394 
Q 1294 4750 2059 4750 
Q 2388 4750 2728 4690 
Q 3069 4631 3425 4513 
z
" transform="scale(0.015625)"/>
       <path id="DejaVuSans-67" d="M 2906 1791 
Q 2906 2416 2648 2759 
Q 2391 3103 1925 3103 
Q 1463 3103 1205 2759 
Q 947 2416 947 1791 
Q 947 1169 1205 825 
Q 1463 481 1925 481 
Q 2391 481 2648 825 
Q 2906 1169 2906 1791 
z
M 3481 434 
Q 3481 -459 3084 -895 
Q 2688 -1331 1869 -1331 
Q 1566 -1331 1297 -1286 
Q 1028 -1241 775 -1147 
L 775 -588 
Q 1028 -725 1275 -790 
Q 1522 -856 1778 -856 
Q 2344 -856 2625 -561 
Q 2906 -266 2906 331 
L 2906 616 
Q 2728 306 2450 153 
Q 2172 0 1784 0 
Q 1141 0 747 490 
Q 353 981 353 1791 
Q 353 2603 747 3093 
Q 1141 3584 1784 3584 
Q 2172 3584 2450 3431 
Q 2728 3278 2906 2969 
L 2906 3500 
L 3481 3500 
L 3481 434 
z
" transform="scale(0.015625)"/>
       <path id="DejaVuSans-50" d="M 1259 4147 
L 1259 2394 
L 2053 2394 
Q 2494 2394 2734 2622 
Q 2975 2850 2975 3272 
Q 2975 3691 2734 3919 
Q 2494 4147 2053 4147 
L 1259 4147 
z
M 628 4666 
L 2053 4666 
Q 2838 4666 3239 4311 
Q 3641 3956 3641 3272 
Q 3641 2581 3239 2228 
Q 2838 1875 2053 1875 
L 1259 1875 
L 1259 0 
L 628 0 
L 628 4666 
z
" transform="scale(0.015625)"/>
      </defs>
      <use xlink:href="#DejaVuSans-4f"/>
      <use xlink:href="#DejaVuSans-70" transform="translate(78.710938 0)"/>
      <use xlink:href="#DejaVuSans-74" transform="translate(142.1875 0)"/>
      <use xlink:href="#DejaVuSans-69" transform="translate(181.396484 0)"/>
      <use xlink:href="#DejaVuSans-6d" transform="translate(209.179688 0)"/>
      <use xlink:href="#DejaVuSans-61" transform="translate(306.591797 0)"/>
      <use xlink:href="#DejaVuSans-6c" transform="translate(367.871094 0)"/>
      <use xlink:href="#DejaVuSans-20" transform="translate(395.654297 0)"/>
      <use xlink:href="#DejaVuSans-53" transform="translate(427.441406 0)"/>
      <use xlink:href="#DejaVuSans-74" transform="translate(490.917969 0)"/>
      <use xlink:href="#DejaVuSans-6f" transform="translate(530.126953 0)"/>
      <use xlink:href="#DejaVuSans-70" transform="translate(591.308594 0)"/>
      <use xlink:href="#DejaVuSans-70" transform="translate(654.785156 0)"/>
      <use xlink:href="#DejaVuSans-69" transform="translate(718.261719 0)"/>
      <use xlink:href="#DejaVuSans-6e" transform="translate(746.044922 0)"/>
      <use xlink:href="#DejaVuSans-67" transform="translate(809.423828 0)"/>
      <use xlink:href="#DejaVuSans-20" transform="translate(872.900391 0)"/>
      <use xlink:href="#DejaVuSans-50" transform="translate(904.6875 0)"/>
      <use xlink:href="#DejaVuSans-6f" transform="translate(961.365234 0)"/>
      <use xlink:href="#DejaVuSans-69" transform="translate(1022.546875 0)"/>
      <use xlink:href="#DejaVuSans-6e" transform="translate(1050.330078 0)"/>
      <use xlink:href="#DejaVuSans-74" transform="translate(1113.708984 0)"/>
     </g>
    </g>
   </g>
  </g>
 </g>
 <defs>
  <clipPath id="p4448668032">
   <rect x="48.17" y="59.024" width="458.554959" height="327.416"/>
  </clipPath>
 </defs>
</svg>
